<svg width="140" height="121" viewBox="0 0 140 121" fill="none" xmlns="http://www.w3.org/2000/svg">
<path d="M8.58875 102.758C7.96955 102.758 7.46875 102.257 7.46875 101.638V35.4492C7.46875 28.7404 12.928 23.2812 19.6384 23.2812H37.1792C37.7984 23.2812 38.2992 23.782 38.2992 24.4012C38.2992 25.0204 37.7984 25.5212 37.1792 25.5212H19.6384C14.1632 25.5212 9.70875 29.974 9.70875 35.4492V101.638C9.70875 102.257 9.20795 102.758 8.58875 102.758Z" fill="black"/>
<path d="M130.452 102.459C129.832 102.459 129.332 101.958 129.332 101.339V35.4492C129.332 29.974 124.877 25.5212 119.402 25.5212H101.034C100.415 25.5212 99.9141 25.0204 99.9141 24.4012C99.9141 23.782 100.415 23.2812 101.034 23.2812H119.402C126.112 23.2812 131.572 28.7404 131.572 35.4492V101.339C131.572 101.956 131.071 102.459 130.452 102.459Z" fill="black"/>
<path d="M127.379 120.06H11.6608C5.2304 120.06 0 114.828 0 108.399V101.239C0 100.62 0.5008 100.119 1.12 100.119H137.92C138.539 100.119 139.04 100.62 139.04 101.239V108.399C139.04 114.828 133.81 120.06 127.379 120.06ZM2.24 102.359V108.398C2.24 113.593 6.4656 117.818 11.6608 117.818H127.379C132.574 117.818 136.8 113.593 136.8 108.398V102.359H2.24Z" fill="black"/>
<path d="M69.5171 36.6898C52.6947 36.6898 44.5299 25.6898 44.1907 25.2226C43.9123 24.8386 43.9043 24.3218 44.1731 23.9298C44.4819 23.4802 51.9427 12.9042 69.4867 12.4402C85.5907 12.037 94.4563 23.4034 94.8275 23.885C95.1411 24.2978 95.1315 24.8706 94.8051 25.2722C94.4259 25.7378 85.3283 36.6898 69.5171 36.6898ZM46.5315 24.549C48.5283 26.8402 56.1651 34.4498 69.5171 34.4498C82.0451 34.4498 90.2131 26.893 92.4483 24.5458C90.2691 22.1346 82.2579 14.3234 69.5475 14.6834C55.5987 15.0498 48.4179 22.3138 46.5315 24.549Z" fill="black"/>
<path d="M69.7399 87.9758C74.5452 87.9758 78.4407 84.0803 78.4407 79.275C78.4407 74.4697 74.5452 70.5742 69.7399 70.5742C64.9345 70.5742 61.0391 74.4697 61.0391 79.275C61.0391 84.0803 64.9345 87.9758 69.7399 87.9758Z" fill="#63C6EF"/>
<path d="M119.016 70.9727H102.406V87.5823H119.016V70.9727Z" fill="#63C6EF"/>
<path d="M30.2528 70.0234L19.8672 88.0122H40.6384L30.2528 70.0234Z" fill="#ED4A4F"/>
<path d="M29.25 84.2604C29.25 83.9532 29.3332 83.7212 29.4964 83.5628C29.6628 83.4044 29.9012 83.3276 30.2164 83.3276C30.5204 83.3276 30.7556 83.4076 30.922 83.5676C31.0884 83.7308 31.1716 83.9596 31.1716 84.2604C31.1716 84.55 31.0868 84.7772 30.9188 84.9452C30.7508 85.1132 30.5156 85.1948 30.2164 85.1948C29.9092 85.1948 29.6708 85.1132 29.5028 84.95C29.3348 84.7868 29.25 84.5564 29.25 84.2604ZM30.8916 82.382H29.5524L29.2708 77.0156H31.1716L30.8916 82.382Z" fill="black"/>
<path d="M69.5217 30.8872C73.0157 30.8872 75.8481 28.0548 75.8481 24.5608C75.8481 21.0668 73.0157 18.2344 69.5217 18.2344C66.0277 18.2344 63.1953 21.0668 63.1953 24.5608C63.1953 28.0548 66.0277 30.8872 69.5217 30.8872Z" fill="#63C6EF"/>
<path d="M46.0809 8.8096C45.4617 8.8096 44.9609 8.3088 44.9609 7.6896V1.12C44.9609 0.5008 45.4617 0 46.0809 0H52.3193C52.9385 0 53.4393 0.5008 53.4393 1.12C53.4393 1.7392 52.9385 2.24 52.3193 2.24H47.2009V7.6896C47.2009 8.3088 46.6985 8.8096 46.0809 8.8096Z" fill="#ED4A4F"/>
<path d="M52.1865 49.12H46.0809C45.4617 49.12 44.9609 48.6192 44.9609 48V41.2528C44.9609 40.6336 45.4617 40.1328 46.0809 40.1328C46.7001 40.1328 47.2009 40.6336 47.2009 41.2528V46.88H52.1865C52.8057 46.88 53.3065 47.3808 53.3065 48C53.3065 48.6192 52.8057 49.12 52.1865 49.12Z" fill="#ED4A4F"/>
<path d="M92.9547 49.12H86.5419C85.9227 49.12 85.4219 48.6192 85.4219 48C85.4219 47.3808 85.9227 46.88 86.5419 46.88H91.8347V41.5184C91.8347 40.8992 92.3355 40.3984 92.9547 40.3984C93.5739 40.3984 94.0747 40.8992 94.0747 41.5184V48C94.0763 48.6176 93.5739 49.12 92.9547 49.12Z" fill="#ED4A4F"/>
<path d="M92.9547 8.8096C92.3355 8.8096 91.8347 8.3088 91.8347 7.6896V2.24H86.4091C85.7899 2.24 85.2891 1.7392 85.2891 1.12C85.2891 0.5008 85.7899 0 86.4091 0H92.9547C93.5739 0 94.0747 0.5008 94.0747 1.12V7.6896C94.0763 8.3088 93.5739 8.8096 92.9547 8.8096Z" fill="#ED4A4F"/>
<path d="M54.4494 80.3962H41.8622C41.243 80.3962 40.7422 79.8955 40.7422 79.2763C40.7422 78.6571 41.243 78.1562 41.8622 78.1562H54.4494C55.0686 78.1562 55.5694 78.6571 55.5694 79.2763C55.5694 79.8955 55.0686 80.3962 54.4494 80.3962Z" fill="black"/>
<path d="M52.9291 84.6876C52.6379 84.6876 52.3483 84.5756 52.1291 84.35C51.6955 83.9084 51.7035 83.1996 52.1467 82.7676L55.5371 79.4492L51.8667 75.7788C51.4299 75.342 51.4299 74.6316 51.8667 74.1948C52.3035 73.758 53.0139 73.758 53.4507 74.1948L57.9211 78.6652C58.1323 78.878 58.2507 79.1644 58.2491 79.4636C58.2475 79.7628 58.1259 80.0476 57.9115 80.2572L53.7115 84.3676C53.4939 84.582 53.2123 84.6876 52.9291 84.6876Z" fill="black"/>
<path d="M96.1275 80.0564H83.5419C82.9227 80.0564 82.4219 79.5556 82.4219 78.9364C82.4219 78.3172 82.9227 77.8164 83.5419 77.8164H96.1275C96.7467 77.8164 97.2475 78.3172 97.2475 78.9364C97.2475 79.5556 96.7467 80.0564 96.1275 80.0564Z" fill="black"/>
<path d="M94.6087 84.3458C94.3175 84.3458 94.0279 84.2338 93.8087 84.0082C93.3751 83.5666 93.3831 82.8578 93.8263 82.4258L97.2167 79.1074L93.5464 75.437C93.1095 75.0002 93.1095 74.2898 93.5464 73.853C93.9832 73.4162 94.6935 73.4162 95.1303 73.853L99.6007 78.3234C99.8119 78.5362 99.9304 78.8226 99.9288 79.1218C99.9272 79.421 99.8056 79.7058 99.5911 79.9154L95.3911 84.0258C95.1735 84.2402 94.8903 84.3458 94.6087 84.3458Z" fill="black"/>
</svg>
