<svg width="120" height="134" viewBox="0 0 120 134" fill="none" xmlns="http://www.w3.org/2000/svg">
<path d="M35.9241 81.216C35.3081 81.216 34.8073 80.7168 34.8041 80.1024L34.6953 58.1088C34.6921 57.4896 35.1929 56.9856 35.8089 56.9824C35.8121 56.9824 35.8153 56.9824 35.8153 56.9824C36.4313 56.9824 36.9321 57.4816 36.9353 58.096L37.0441 80.0896C37.0473 80.7088 36.5465 81.2128 35.9305 81.216C35.9273 81.216 35.9241 81.216 35.9241 81.216Z" fill="#ED4A4F"/>
<path d="M59.6982 69.4853C59.695 69.4853 59.6902 69.4853 59.687 69.4853C59.0678 69.4789 58.5718 68.9733 58.5782 68.3541L58.7382 51.8373C58.7446 51.2197 59.1766 50.7301 59.8694 50.7285C60.4886 50.7349 60.9846 51.2405 60.9782 51.8597L60.8182 68.3765C60.8134 68.9893 60.3126 69.4853 59.6982 69.4853Z" fill="#ED4A4F"/>
<path d="M83.6356 80.3491H83.6324C83.0132 80.3475 82.514 79.8451 82.5156 79.2259L82.6068 39.8707C82.6084 39.2531 83.1092 38.7539 83.7268 38.7539H83.73C84.3492 38.7555 84.8484 39.2579 84.8468 39.8771L84.7556 79.2323C84.754 79.8483 84.2516 80.3491 83.6356 80.3491Z" fill="#ED4A4F"/>
<path d="M107.589 86.606C106.97 86.606 106.469 86.1052 106.469 85.486V20.87C106.469 20.2508 106.97 19.75 107.589 19.75C108.208 19.75 108.709 20.2508 108.709 20.87V85.486C108.709 86.1036 108.206 86.606 107.589 86.606Z" fill="#ED4A4F"/>
<path d="M90.7812 95.748C92.3989 93.8376 94.8053 92.6152 97.5061 92.6152C102.376 92.6152 106.325 96.564 106.325 101.434C106.325 106.305 102.376 110.254 97.5061 110.254C94.8053 110.254 92.3989 109.031 90.7812 107.119V95.748Z" fill="#63C6EF"/>
<path d="M100.858 123.717H94.2467C93.7027 123.717 93.2387 123.327 93.1443 122.792L92.6435 119.975C92.4627 118.957 91.7843 118.114 90.8291 117.722C89.7603 117.274 88.6803 117.389 87.8259 117.984L85.4899 119.621C84.9843 119.978 84.2867 119.853 83.9299 119.346C83.5747 118.84 83.6963 118.141 84.2051 117.786L86.5411 116.149C88.0259 115.111 89.9123 114.911 91.5795 115.607C93.3475 116.335 94.5331 117.805 94.8483 119.583L95.1843 121.476H99.9075L100.218 119.612C100.517 117.815 101.703 116.324 103.388 115.624C105.098 114.908 106.981 115.111 108.463 116.149L110.036 117.25L113.375 113.911L112.274 112.372C111.213 110.888 110.999 108.994 111.7 107.303C112.402 105.596 113.872 104.41 115.65 104.095L117.546 103.76V99.0371L115.682 98.7268C113.887 98.4276 112.397 97.2435 111.698 95.5603C110.981 93.8483 111.183 91.9651 112.221 90.4835L113.324 88.9075L109.983 85.5683L108.416 86.6867C106.941 87.7395 105.064 87.9475 103.394 87.2531C101.679 86.5427 100.503 85.0595 100.212 83.2723L99.9059 81.3939H95.1827L94.8531 83.2771C94.5427 85.0579 93.3571 86.5331 91.6851 87.2211C89.9363 87.9507 88.0355 87.7315 86.5491 86.6611L84.2611 85.0163C83.7587 84.6547 83.6419 83.9555 84.0035 83.4531C84.3651 82.9507 85.0659 82.8355 85.5667 83.1971L87.8579 84.8419C88.7107 85.4563 89.8003 85.5827 90.7731 85.1747C91.7923 84.7539 92.4707 83.9107 92.6483 82.8899L93.1411 80.0787C93.2355 79.5427 93.7011 79.1523 94.2435 79.1523H100.86C101.408 79.1523 101.877 79.5507 101.964 80.0931L102.423 82.9107C102.589 83.9283 103.26 84.7715 104.215 85.1667C105.207 85.5795 106.279 85.4611 107.116 84.8643L109.455 83.1939C109.901 82.8771 110.511 82.9251 110.898 83.3123L115.575 87.9859C115.959 88.3699 116.012 88.9747 115.7 89.4195L114.058 91.7667C113.463 92.6147 113.348 93.6947 113.749 94.6531C114.172 95.6659 115.026 96.3459 116.053 96.5171L118.853 96.9843C119.394 97.0755 119.789 97.5427 119.789 98.0883V104.7C119.789 105.244 119.399 105.708 118.864 105.802L116.044 106.301C115.026 106.48 114.184 107.16 113.791 108.117C113.37 109.132 113.492 110.218 114.1 111.069L115.752 113.38C116.071 113.824 116.021 114.436 115.634 114.823L110.959 119.498C110.575 119.882 109.97 119.935 109.525 119.623L107.181 117.984C106.33 117.391 105.252 117.276 104.295 117.676C103.28 118.096 102.6 118.951 102.429 119.981L101.962 122.781C101.871 123.322 101.404 123.717 100.858 123.717Z" fill="black"/>
<path d="M29.0049 95.748C27.3873 93.8376 24.9809 92.6152 22.2801 92.6152C17.4097 92.6152 13.4609 96.564 13.4609 101.434C13.4609 106.305 17.4097 110.254 22.2801 110.254C24.9809 110.254 27.3873 109.031 29.0049 107.119V95.748Z" fill="#63C6EF"/>
<path d="M8.03412 52.532C7.42132 52.532 6.92052 52.0376 6.91412 51.4248C6.90772 50.8056 7.40532 50.3 8.02132 50.292C8.70292 50.2856 76.4213 49.0168 106.759 2.52077C107.097 2.00557 107.791 1.85677 108.309 2.19597C108.826 2.53357 108.973 3.22797 108.634 3.74637C77.6357 51.2536 8.73812 52.524 8.04692 52.532C8.04212 52.532 8.03732 52.532 8.03412 52.532Z" fill="black"/>
<path d="M111.475 14.3951C110.949 14.3951 110.479 14.0223 110.376 13.4847L108.266 2.43193L97.2114 4.54233C96.6178 4.66393 96.0194 4.26073 95.9026 3.65113C95.7874 3.04473 96.1859 2.45753 96.7939 2.34233L108.949 0.0207257C109.237 -0.0368743 109.541 0.0271254 109.787 0.193525C110.032 0.359925 110.202 0.619126 110.258 0.910326L112.578 13.0655C112.693 13.6719 112.295 14.2591 111.687 14.3743C111.616 14.3887 111.546 14.3951 111.475 14.3951Z" fill="black"/>
<path d="M11.9638 86.495C11.3446 86.495 10.8438 85.9942 10.8438 85.375V60.3446C10.8438 59.7254 11.3446 59.2246 11.9638 59.2246C12.583 59.2246 13.0837 59.7254 13.0837 60.3446V85.3734C13.0837 85.9926 12.583 86.495 11.9638 86.495Z" fill="#ED4A4F"/>
<path d="M25.5424 123.717H18.9312C18.384 123.717 17.9168 123.322 17.8272 122.782L17.36 119.982C17.1888 118.95 16.5072 118.095 15.5376 117.694C14.5392 117.276 13.4576 117.389 12.608 117.985L10.264 119.623C9.8208 119.935 9.216 119.882 8.8304 119.498L4.1552 114.823C3.768 114.436 3.7184 113.825 4.0368 113.38L5.6896 111.07C6.2976 110.22 6.4192 109.132 6.0176 108.161C5.6048 107.162 4.7616 106.482 3.744 106.303L0.924799 105.804C0.390399 105.708 0 105.244 0 104.701V98.0903C0 97.5431 0.3952 97.0759 0.936 96.9863L3.736 96.5191C4.7648 96.3479 5.6192 95.6679 6.0208 94.7015C6.4432 93.6967 6.3264 92.6167 5.7312 91.7687L4.0896 89.4215C3.7776 88.9767 3.8304 88.3719 4.2144 87.9879L8.8912 83.3143C9.2784 82.9271 9.888 82.8775 10.3344 83.1959L12.6736 84.8663C13.5072 85.4647 14.5792 85.5831 15.528 85.1863C16.528 84.7735 17.1984 83.9303 17.3648 82.9111L17.8208 80.0951C17.9104 79.5527 18.3792 79.1543 18.9264 79.1543H25.544C26.088 79.1543 26.5536 79.5463 26.6464 80.0823L27.1376 82.8919C27.3168 83.9127 27.9952 84.7559 28.952 85.1495C29.9904 85.5831 31.0784 85.4535 31.928 84.8439L34.216 83.1991L35.5248 85.0183L33.2352 86.6631C31.7504 87.7319 29.8496 87.9511 28.1536 87.2455C26.4288 86.5351 25.2448 85.0615 24.9296 83.2791L24.6016 81.3959H19.8784L19.5744 83.2727C19.28 85.0631 18.104 86.5447 16.4256 87.2391C14.7136 87.9511 12.8384 87.7399 11.368 86.6887L9.8016 85.5703L6.4608 88.9095L7.5632 90.4855C8.6016 91.9671 8.8032 93.8503 8.104 95.5207C7.3872 97.2455 5.8976 98.4295 4.1024 98.7287L2.2384 99.0391V103.762L4.1328 104.097C5.9088 104.412 7.3792 105.598 8.0688 107.265C8.784 108.994 8.5696 110.89 7.5088 112.372L6.408 113.911L9.7472 117.25L11.32 116.15C12.8048 115.111 14.6848 114.909 16.3552 115.609C18.0784 116.324 19.2656 117.815 19.5648 119.612L19.8752 121.476H24.5984L24.9344 119.583C25.2496 117.807 26.4352 116.337 28.1008 115.649C29.872 114.906 31.7552 115.108 33.2432 116.15L35.5792 117.786C36.0864 118.141 36.2096 118.839 35.8544 119.346C35.4992 119.853 34.8032 119.978 34.2944 119.622L31.9584 117.985C31.104 117.389 30.024 117.273 29.0688 117.674C29.056 117.679 28.9328 117.73 28.92 117.735C27.9984 118.114 27.3216 118.959 27.1408 119.975L26.64 122.793C26.5504 123.327 26.0864 123.717 25.5424 123.717Z" fill="black"/>
<path d="M64.7052 133.838H54.9324C54.3852 133.838 53.918 133.443 53.8284 132.902L53.1372 128.763C52.8524 127.058 51.726 125.642 50.1212 124.976C48.478 124.285 46.686 124.475 45.2764 125.462L41.8108 127.885C41.3676 128.197 40.7612 128.144 40.3772 127.76L33.4684 120.85C33.0812 120.462 33.0316 119.851 33.35 119.406L35.7932 115.989C36.8012 114.581 37.0044 112.781 36.3372 111.174C35.6572 109.526 34.262 108.403 32.5756 108.102L28.4092 107.365C27.8748 107.269 27.4844 106.805 27.4844 106.262V96.4896C27.4844 95.9424 27.8812 95.4736 28.4204 95.3856L32.5596 94.696C34.2636 94.4112 35.678 93.2864 36.342 91.6848C37.0364 90.032 36.8444 88.2448 35.8588 86.8368L33.43 83.3696C33.118 82.9248 33.1708 82.32 33.5548 81.936L40.4668 75.0272C40.8556 74.64 41.4668 74.5888 41.9084 74.9088L45.3676 77.3776C46.7564 78.368 48.5276 78.5712 50.1084 77.9088C51.7564 77.2256 52.87 75.8272 53.1452 74.1392L53.8236 69.976C53.9116 69.4336 54.3804 69.0352 54.9276 69.0352H64.7084C65.2524 69.0352 65.718 69.4256 65.8108 69.9616L66.5372 74.1136C66.8348 75.8064 67.958 77.2064 69.5436 77.8592C71.2444 78.5648 73.0476 78.36 74.4604 77.3456L77.8412 74.912C78.286 74.5936 78.8988 74.64 79.2876 75.0288L86.2076 81.9392C86.5916 82.3232 86.6444 82.9296 86.3324 83.3744L83.9164 86.816C82.9228 88.2288 82.7308 90.024 83.398 91.6192C84.0988 93.3008 85.5212 94.4304 87.2348 94.7104L91.3436 95.3824C91.8844 95.4704 92.2828 95.9392 92.2828 96.4864L92.2844 106.262C92.2844 106.806 91.894 107.272 91.358 107.365L87.2108 108.093C85.5148 108.392 84.1116 109.518 83.4556 111.11C82.7548 112.794 82.9628 114.606 83.9836 116.021L86.414 119.394C86.734 119.838 86.6844 120.451 86.2972 120.84L79.3868 127.755C79.0028 128.138 78.398 128.192 77.9532 127.88L74.5004 125.461C73.0892 124.472 71.3004 124.28 69.7148 124.946L69.5484 125.016C67.9676 125.667 66.8444 127.062 66.5452 128.749L65.806 132.914C65.7132 133.448 65.2492 133.838 64.7052 133.838ZM55.8796 131.598H63.7644L64.3404 128.358C64.774 125.915 66.4028 123.891 68.6972 122.946L69.2844 123.914L68.8508 122.88C71.1516 121.915 73.7452 122.195 75.7868 123.627L78.47 125.507L84.0428 119.931L82.1692 117.33C80.6924 115.278 80.3916 112.654 81.3644 110.314C82.3372 107.95 84.3708 106.317 86.8268 105.885L90.046 105.32L90.0476 97.4352L86.878 96.9152C84.3932 96.5104 82.3308 94.8768 81.3628 92.544C80.3692 90.1712 80.6492 87.5712 82.0876 85.5248L83.9612 82.8544L78.382 77.28L75.7692 79.1584C73.7212 80.6304 71.1084 80.928 68.774 79.9584C66.3932 78.9776 64.7628 76.9472 64.334 74.496L63.7692 71.2704H55.8812L55.3548 74.4944C54.9532 76.9536 53.334 78.9936 51.0268 79.9472C48.6764 80.9296 46.0924 80.6432 44.0668 79.1936L41.3788 77.2768L35.8012 82.8512L37.6908 85.5488C39.1212 87.5888 39.398 90.1808 38.4348 92.48C37.446 94.8592 35.3964 96.4896 32.926 96.9024L29.7228 97.4352V105.322L32.9644 105.894C35.4092 106.328 37.4332 107.96 38.3804 110.256C39.3692 112.64 39.0748 115.248 37.614 117.29L35.7212 119.934L41.2956 125.509L43.9916 123.624C46.0316 122.197 48.622 121.918 50.9244 122.882C53.3004 123.867 54.934 125.918 55.3468 128.392L55.8796 131.598Z" fill="black"/>
<path d="M59.8856 118.218C69.1551 118.218 76.6696 110.704 76.6696 101.434C76.6696 92.1648 69.1551 84.6504 59.8856 84.6504C50.616 84.6504 43.1016 92.1648 43.1016 101.434C43.1016 110.704 50.616 118.218 59.8856 118.218Z" fill="#63C6EF"/>
<path d="M58.1601 109.429C57.8625 109.429 57.5793 109.311 57.3681 109.101L50.0385 101.77C49.6017 101.333 49.6017 100.623 50.0385 100.186C50.4753 99.7493 51.1857 99.7493 51.6225 100.186L58.1601 106.725L69.1633 95.7221C69.6001 95.2853 70.3105 95.2853 70.7473 95.7221C71.1841 96.1589 71.1841 96.8693 70.7473 97.3061L58.9521 109.101C58.7409 109.309 58.4561 109.429 58.1601 109.429Z" fill="white"/>
</svg>
