<svg width="138" height="135" viewBox="0 0 138 135" fill="none" xmlns="http://www.w3.org/2000/svg">
<path d="M88.8076 125.347H11.1915C5.14195 125.347 0.21875 120.426 0.21875 114.376V11.0451C0.21875 4.99547 5.14195 0.0722656 11.1915 0.0722656L88.55 0.109065C94.7436 0.112265 99.782 5.15387 99.782 11.3459V61.2483C99.782 61.8675 99.2812 62.3683 98.662 62.3683C98.0428 62.3683 97.542 61.8675 97.542 61.2483V11.3475C97.542 6.38907 93.5084 2.35387 88.5516 2.35067L11.1915 2.31227C6.37555 2.31227 2.45875 6.22907 2.45875 11.0451V114.375C2.45875 119.189 6.37555 123.106 11.1915 123.106H88.8076C93.6236 123.106 97.5404 119.189 97.5404 114.375C97.5404 113.755 98.0411 113.255 98.6603 113.255C99.2795 113.255 99.7804 113.755 99.7804 114.375C99.7804 120.426 94.8572 125.347 88.8076 125.347Z" fill="black"/>
<path d="M112.673 102.066L134.651 124.044C136.756 126.15 136.756 129.564 134.651 131.67C132.545 133.775 129.131 133.775 127.025 131.67L105.422 110.066" fill="white"/>
<path d="M130.839 134.366C129.171 134.366 127.504 133.731 126.234 132.462L104.632 110.859C104.195 110.422 104.195 109.712 104.632 109.275C105.069 108.838 105.779 108.838 106.216 109.275L127.818 130.878C129.483 132.544 132.194 132.54 133.859 130.878C134.666 130.072 135.109 129 135.109 127.857C135.109 126.715 134.666 125.643 133.859 124.836L111.882 102.859C111.445 102.422 111.445 101.712 111.882 101.275C112.319 100.838 113.029 100.838 113.466 101.275L135.443 123.252C137.983 125.792 137.983 129.923 135.443 132.462C134.175 133.731 132.507 134.366 130.839 134.366Z" fill="black"/>
<path d="M89.1286 116.267C81.7366 116.267 74.343 113.453 68.7142 107.827C57.4598 96.5698 57.4598 78.2562 68.7142 66.9986C79.9702 55.7426 98.2854 55.7426 109.543 66.9986C120.797 78.2546 120.797 96.5682 109.543 107.827C103.914 113.453 96.5206 116.267 89.1286 116.267ZM89.1286 60.7954C82.3094 60.7954 75.4902 63.3906 70.2982 68.5826C59.9158 78.9634 59.9158 95.8594 70.2982 106.242C80.6806 116.623 97.575 116.626 107.957 106.242C118.34 95.8594 118.34 78.9634 107.957 68.5826C102.769 63.3906 95.9478 60.7954 89.1286 60.7954Z" fill="black"/>
<path d="M89.1344 109.283C101.212 109.283 111.003 99.4915 111.003 87.4137C111.003 75.3359 101.212 65.5449 89.1344 65.5449C77.0566 65.5449 67.2656 75.3359 67.2656 87.4137C67.2656 99.4915 77.0566 109.283 89.1344 109.283Z" fill="#63C6EF"/>
<path d="M32.5697 13.5645H12.9297V33.2045H32.5697V13.5645Z" fill="#ED4A4F"/>
<path d="M72.3831 19.3787H40.8231C40.2039 19.3787 39.7031 18.8779 39.7031 18.2587C39.7031 17.6395 40.2039 17.1387 40.8231 17.1387H72.3847C73.0039 17.1387 73.5047 17.6395 73.5047 18.2587C73.5047 18.8779 73.0023 19.3787 72.3831 19.3787Z" fill="black"/>
<path d="M62.2727 29.0252H40.8231C40.2039 29.0252 39.7031 28.5244 39.7031 27.9052C39.7031 27.286 40.2039 26.7852 40.8231 26.7852H62.2727C62.8919 26.7852 63.3927 27.286 63.3927 27.9052C63.3927 28.5244 62.8919 29.0252 62.2727 29.0252Z" fill="black"/>
<path d="M32.6166 52.4102H12.9766V72.0502H32.6166V52.4102Z" fill="#ED4A4F"/>
<path d="M64.233 58.2244H40.8778C40.2586 58.2244 39.7578 57.7236 39.7578 57.1044C39.7578 56.4852 40.2586 55.9844 40.8778 55.9844H64.233C64.8522 55.9844 65.353 56.4852 65.353 57.1044C65.353 57.7236 64.8506 58.2244 64.233 58.2244Z" fill="black"/>
<path d="M51.5882 67.9002H40.8778C40.2586 67.9002 39.7578 67.3994 39.7578 66.7802C39.7578 66.161 40.2586 65.6602 40.8778 65.6602H51.5882C52.2074 65.6602 52.7082 66.161 52.7082 66.7802C52.7082 67.3994 52.2074 67.9002 51.5882 67.9002Z" fill="black"/>
<path d="M32.6869 91.4492H13.0469V111.089H32.6869V91.4492Z" fill="#ED4A4F"/>
<path d="M48.0651 97.2634H40.9403C40.3211 97.2634 39.8203 96.7626 39.8203 96.1434C39.8203 95.5242 40.3211 95.0234 40.9403 95.0234H48.0651C48.6843 95.0234 49.1851 95.5242 49.1851 96.1434C49.1851 96.7626 48.6843 97.2634 48.0651 97.2634Z" fill="black"/>
<path d="M53.1499 106.943H40.9403C40.3211 106.943 39.8203 106.442 39.8203 105.823C39.8203 105.204 40.3211 104.703 40.9403 104.703H53.1499C53.7691 104.703 54.2699 105.204 54.2699 105.823C54.2699 106.442 53.7691 106.943 53.1499 106.943Z" fill="black"/>
<path d="M87.316 97.4084C87.0184 97.4084 86.7352 97.29 86.524 97.0804L77.2104 87.7668C76.7736 87.33 76.7736 86.6196 77.2104 86.1828C77.6472 85.746 78.3576 85.746 78.7944 86.1828L87.316 94.7044L101.51 80.5092C101.946 80.0724 102.657 80.0724 103.094 80.5092C103.53 80.946 103.53 81.6564 103.094 82.0932L88.108 97.0804C87.8984 97.29 87.6136 97.4084 87.316 97.4084Z" fill="white"/>
</svg>
