<svg width="203" height="208" viewBox="0 0 203 208" fill="none" xmlns="http://www.w3.org/2000/svg">
<path d="M101.084 186.706C100.885 186.706 100.687 186.671 100.498 186.599C98.1316 185.716 42.5312 164.478 42.5312 122.043V62.5572C42.5312 61.6317 43.2824 60.8806 44.2078 60.8806C57.7201 60.8806 99.9959 42.7644 100.422 42.5811C100.845 42.4 101.324 42.4 101.747 42.5811C102.173 42.7644 144.435 60.8806 157.963 60.8806C158.888 60.8806 159.639 61.6317 159.639 62.5572V122.044C159.639 164.805 104.031 185.733 101.664 186.604C101.475 186.672 101.278 186.706 101.084 186.706ZM45.8833 64.1622V122.043C45.8833 159.94 95.1338 180.844 101.088 183.229C107.04 180.874 156.285 160.205 156.285 122.043V64.1622C141.649 63.0166 106.548 48.2704 101.084 45.9444C95.6167 48.2715 60.5032 63.0166 45.8833 64.1622Z" fill="black"/>
<path d="M115.936 100.375C115.011 100.375 114.259 99.6241 114.259 98.6986V89.6841C114.259 84.0776 109.699 79.5173 104.093 79.5173H98.0747C92.4682 79.5173 87.9079 84.0776 87.9079 89.6841V98.6986C87.9079 99.6241 87.1568 100.375 86.2313 100.375C85.3058 100.375 84.5547 99.6241 84.5547 98.6986V89.6841C84.5547 82.2289 90.6195 76.1641 98.0747 76.1641H104.093C111.548 76.1641 117.613 82.2289 117.613 89.6841V98.6986C117.613 99.6241 116.862 100.375 115.936 100.375Z" fill="black"/>
<path d="M101.083 45.7968C100.157 45.7968 99.4062 45.0457 99.4062 44.1202V18.9188C99.4062 17.9933 100.157 17.2422 101.083 17.2422C102.008 17.2422 102.759 17.9933 102.759 18.9188V44.1202C102.759 45.0457 102.008 45.7968 101.083 45.7968Z" fill="black"/>
<path d="M183.386 116.275H158.184C157.259 116.275 156.508 115.524 156.508 114.598C156.508 113.673 157.259 112.922 158.184 112.922H183.386C184.311 112.922 185.062 113.673 185.062 114.598C185.062 115.524 184.311 116.275 183.386 116.275Z" fill="black"/>
<path d="M126.755 55.5301C125.829 55.5301 125.078 54.779 125.078 53.8535V39.2984C125.078 33.7489 129.593 29.2344 135.141 29.2344H149.005C149.931 29.2344 150.682 29.9855 150.682 30.911C150.682 31.8364 149.931 32.5876 149.005 32.5876H135.141C131.441 32.5876 128.431 35.5976 128.431 39.2984V53.8524C128.431 54.779 127.68 55.5301 126.755 55.5301Z" fill="black"/>
<path d="M178.839 86.304H159.075C158.15 86.304 157.398 85.5528 157.398 84.6274C157.398 83.7019 158.15 82.9508 159.075 82.9508H178.839C182.54 82.9508 185.55 79.9407 185.55 76.241V63.2664C185.55 62.341 186.301 61.5898 187.226 61.5898C188.152 61.5898 188.903 62.341 188.903 63.2664V76.241C188.903 81.7895 184.388 86.304 178.839 86.304Z" fill="black"/>
<path d="M143.663 200.185H130.688C125.14 200.185 120.625 195.671 120.625 190.121V174.825C120.625 173.9 121.376 173.148 122.302 173.148C123.227 173.148 123.978 173.9 123.978 174.825V190.121C123.978 193.822 126.988 196.832 130.688 196.832H143.663C144.588 196.832 145.339 197.583 145.339 198.509C145.339 199.434 144.588 200.185 143.663 200.185Z" fill="black"/>
<path d="M177.608 167.605C176.683 167.605 175.932 166.854 175.932 165.928V152.954C175.932 149.254 172.922 146.244 169.221 146.244H152.809C151.884 146.244 151.133 145.493 151.133 144.567C151.133 143.642 151.884 142.891 152.809 142.891H169.222C174.772 142.891 179.286 147.405 179.286 152.954V165.928C179.285 166.854 178.535 167.605 177.608 167.605Z" fill="black"/>
<path d="M44.1202 116.275H18.9188C17.9933 116.275 17.2422 115.524 17.2422 114.598C17.2422 113.673 17.9933 112.922 18.9188 112.922H44.1202C45.0457 112.922 45.7968 113.673 45.7968 114.598C45.7968 115.524 45.0457 116.275 44.1202 116.275Z" fill="black"/>
<path d="M75.5522 55.5301C74.6268 55.5301 73.8756 54.779 73.8756 53.8535V39.2984C73.8756 35.5976 70.8656 32.5876 67.1659 32.5876H53.3016C52.3761 32.5876 51.625 31.8364 51.625 30.911C51.625 29.9855 52.3761 29.2344 53.3016 29.2344H67.1659C72.7143 29.2344 77.2288 33.7489 77.2288 39.2984V53.8524C77.2288 54.779 76.4777 55.5301 75.5522 55.5301Z" fill="black"/>
<path d="M43.234 86.304H23.4703C17.9208 86.304 13.4062 81.7895 13.4062 76.241V63.2664C13.4062 62.341 14.1574 61.5898 15.0828 61.5898C16.0083 61.5898 16.7594 62.341 16.7594 63.2664V76.241C16.7594 79.9407 19.7695 82.9508 23.4703 82.9508H43.234C44.1595 82.9508 44.9106 83.7019 44.9106 84.6274C44.9106 85.5528 44.1595 86.304 43.234 86.304Z" fill="black"/>
<path d="M71.6121 200.185H58.6375C57.7121 200.185 56.9609 199.434 56.9609 198.509C56.9609 197.583 57.7121 196.832 58.6375 196.832H71.6121C75.3118 196.832 78.3219 193.822 78.3219 190.121V174.825C78.3219 173.9 79.073 173.148 79.9985 173.148C80.9239 173.148 81.675 173.9 81.675 174.825V190.121C81.675 195.671 77.1605 200.185 71.6121 200.185Z" fill="black"/>
<path d="M24.7 167.605C23.7746 167.605 23.0234 166.854 23.0234 165.928V152.954C23.0234 147.405 27.5379 142.891 33.0875 142.891H49.4991C50.4246 142.891 51.1757 143.642 51.1757 144.567C51.1757 145.493 50.4246 146.244 49.4991 146.244H33.0864C29.3856 146.244 26.3755 149.254 26.3755 152.954V165.928C26.3766 166.854 25.6255 167.605 24.7 167.605Z" fill="black"/>
<path d="M101.083 175.516C100.157 175.516 99.4062 174.765 99.4062 173.839V144.567C99.4062 143.642 100.157 142.891 101.083 142.891C102.008 142.891 102.759 143.642 102.759 144.567V173.839C102.759 174.765 102.008 175.516 101.083 175.516Z" fill="black"/>
<path d="M101.083 71.6801C100.157 71.6801 99.4062 70.929 99.4062 70.0036V54.2391C99.4062 53.3136 100.157 52.5625 101.083 52.5625C102.008 52.5625 102.759 53.3136 102.759 54.2391V70.0036C102.759 70.929 102.008 71.6801 101.083 71.6801Z" fill="black"/>
<path d="M115.207 138.916H86.9647C80.5858 138.916 75.4141 133.744 75.4141 127.365V101.389C75.4141 99.7977 76.7039 98.5078 78.2956 98.5078H123.875C125.467 98.5078 126.757 99.7977 126.757 101.389V127.365C126.758 133.744 121.586 138.916 115.207 138.916Z" fill="#ED4A4F"/>
<path d="M101.084 118.715C103.728 118.715 105.871 116.572 105.871 113.928C105.871 111.284 103.728 109.141 101.084 109.141C98.4402 109.141 96.2969 111.284 96.2969 113.928C96.2969 116.572 98.4402 118.715 101.084 118.715Z" fill="black"/>
<path d="M101.083 126.409C100.157 126.409 99.4062 125.658 99.4062 124.733V116.88C99.4062 115.954 100.157 115.203 101.083 115.203C102.008 115.203 102.759 115.954 102.759 116.88V124.733C102.759 125.658 102.008 126.409 101.083 126.409Z" fill="black"/>
<path d="M101.088 18.9902C95.8523 18.9902 91.5938 14.7306 91.5938 9.49511C91.5938 4.25967 95.8534 0 101.088 0C106.324 0 110.583 4.25967 110.583 9.49511C110.583 14.7306 106.323 18.9902 101.088 18.9902ZM101.088 3.35319C97.7021 3.35319 94.9469 6.10839 94.9469 9.49511C94.9469 12.8818 97.7021 15.637 101.088 15.637C104.474 15.637 107.23 12.8818 107.23 9.49511C107.23 6.10839 104.474 3.35319 101.088 3.35319Z" fill="#63C6EF"/>
<path d="M192.815 124.092C187.579 124.092 183.32 119.832 183.32 114.597C183.32 109.361 187.58 105.102 192.815 105.102C198.051 105.102 202.311 109.361 202.311 114.597C202.311 119.832 198.051 124.092 192.815 124.092ZM192.815 108.454C189.429 108.454 186.674 111.209 186.674 114.596C186.674 117.982 189.429 120.737 192.815 120.737C196.202 120.737 198.957 117.982 198.957 114.596C198.957 111.209 196.202 108.454 192.815 108.454Z" fill="#63C6EF"/>
<path d="M156.823 40.4043C151.587 40.4043 147.328 36.1446 147.328 30.9092C147.328 25.6737 151.588 21.4141 156.823 21.4141C162.059 21.4141 166.318 25.6737 166.318 30.9092C166.318 36.1446 162.059 40.4043 156.823 40.4043ZM156.823 24.7661C153.437 24.7661 150.681 27.5213 150.681 30.9081C150.681 34.2948 153.437 37.05 156.823 37.05C160.21 37.05 162.965 34.2948 162.965 30.9081C162.965 27.5213 160.21 24.7661 156.823 24.7661Z" fill="#63C6EF"/>
<path d="M187.229 64.9422C181.993 64.9422 177.734 60.6826 177.734 55.4471C177.734 50.2117 181.994 45.9531 187.229 45.9531C192.465 45.9531 196.723 50.2128 196.723 55.4471C196.723 60.6826 192.464 64.9422 187.229 64.9422ZM187.229 49.3052C183.843 49.3052 181.088 52.0604 181.088 55.446C181.088 58.8327 183.843 61.5879 187.229 61.5879C190.615 61.5879 193.37 58.8327 193.37 55.446C193.37 52.0604 190.615 49.3052 187.229 49.3052Z" fill="#63C6EF"/>
<path d="M151.487 207.998C146.251 207.998 141.992 203.738 141.992 198.503C141.992 193.267 146.252 189.008 151.487 189.008C156.723 189.008 160.982 193.267 160.982 198.503C160.982 203.738 156.724 207.998 151.487 207.998ZM151.487 192.361C148.101 192.361 145.345 195.116 145.345 198.503C145.345 201.89 148.101 204.645 151.487 204.645C154.874 204.645 157.629 201.89 157.629 198.503C157.629 195.116 154.875 192.361 151.487 192.361Z" fill="#63C6EF"/>
<path d="M177.604 183.244C172.368 183.244 168.109 178.984 168.109 173.749C168.109 168.514 172.369 164.254 177.604 164.254C182.84 164.254 187.1 168.514 187.1 173.749C187.1 178.984 182.841 183.244 177.604 183.244ZM177.604 167.607C174.218 167.607 171.463 170.362 171.463 173.749C171.463 177.136 174.218 179.891 177.604 179.891C180.991 179.891 183.746 177.136 183.746 173.749C183.746 170.362 180.992 167.607 177.604 167.607Z" fill="#63C6EF"/>
<path d="M9.49511 124.092C4.25855 124.092 0 119.832 0 114.597C0 109.361 4.25967 105.102 9.49511 105.102C14.7306 105.102 18.9902 109.361 18.9902 114.597C18.9902 119.832 14.7317 124.092 9.49511 124.092ZM9.49511 108.454C6.10839 108.454 3.35319 111.209 3.35319 114.596C3.35319 117.982 6.10839 120.737 9.49511 120.737C12.8818 120.737 15.637 117.982 15.637 114.596C15.637 111.209 12.8818 108.454 9.49511 108.454Z" fill="#63C6EF"/>
<path d="M45.4795 40.4043C40.2429 40.4043 35.9844 36.1446 35.9844 30.9092C35.9844 25.6737 40.244 21.4141 45.4795 21.4141C50.7149 21.4141 54.9746 25.6737 54.9746 30.9092C54.9746 36.1446 50.7161 40.4043 45.4795 40.4043ZM45.4795 24.7661C42.0928 24.7661 39.3376 27.5213 39.3376 30.9081C39.3376 34.2948 42.0928 37.05 45.4795 37.05C48.8662 37.05 51.6214 34.2948 51.6214 30.9081C51.6214 27.5213 48.8673 24.7661 45.4795 24.7661Z" fill="#63C6EF"/>
<path d="M15.0877 64.9422C9.8523 64.9422 5.59375 60.6826 5.59375 55.4471C5.59375 50.2117 9.85342 45.9531 15.0877 45.9531C20.3243 45.9531 24.5829 50.2128 24.5829 55.4471C24.5829 60.6826 20.3243 64.9422 15.0877 64.9422ZM15.0877 49.3052C11.7021 49.3052 8.94694 52.0604 8.94694 55.446C8.94694 58.8327 11.7021 61.5879 15.0877 61.5879C18.4745 61.5879 21.2297 58.8327 21.2297 55.446C21.2297 52.0604 18.4745 49.3052 15.0877 49.3052Z" fill="#63C6EF"/>
<path d="M50.8311 207.998C45.5945 207.998 41.3359 203.738 41.3359 198.503C41.3359 193.267 45.5956 189.008 50.8311 189.008C56.0665 189.008 60.3262 193.267 60.3262 198.503C60.3262 203.738 56.0665 207.998 50.8311 207.998ZM50.8311 192.361C47.4443 192.361 44.6891 195.116 44.6891 198.503C44.6891 201.89 47.4443 204.645 50.8311 204.645C54.2178 204.645 56.973 201.89 56.973 198.503C56.973 195.116 54.2178 192.361 50.8311 192.361Z" fill="#63C6EF"/>
<path d="M24.706 183.244C19.4695 183.244 15.2109 178.984 15.2109 173.749C15.2109 168.514 19.4706 164.254 24.706 164.254C29.9415 164.254 34.2012 168.514 34.2012 173.749C34.2012 178.984 29.9415 183.244 24.706 183.244ZM24.706 167.607C21.3193 167.607 18.5641 170.362 18.5641 173.749C18.5641 177.136 21.3193 179.891 24.706 179.891C28.0928 179.891 30.848 177.136 30.848 173.749C30.848 170.362 28.0928 167.607 24.706 167.607Z" fill="#63C6EF"/>
<path d="M101.115 176.634C100.889 176.634 100.663 176.588 100.451 176.497C88.9663 171.55 51.4922 152.98 51.4922 121.707V70.5824C51.4922 69.7743 52.0689 69.0813 52.8625 68.9337C67.7227 66.173 93.0371 55.8027 100.442 52.6898C100.857 52.5143 101.325 52.5154 101.742 52.6898C109.142 55.8027 134.446 66.173 149.32 68.9337C150.115 69.0813 150.692 69.7743 150.692 70.5824V121.707C150.692 153.312 113.246 171.637 101.768 176.5C101.56 176.589 101.337 176.634 101.115 176.634ZM54.8465 71.9628V121.708C54.8465 150.923 91.9775 169.1 101.12 173.132C110.257 169.166 147.34 151.241 147.34 121.708V71.9628C132.82 68.9751 110.761 60.1048 101.093 56.0553C91.4186 60.1048 69.3524 68.974 54.8465 71.9628Z" fill="#ED4A4F"/>
</svg>
